%TF.GenerationSoftware,KiCad,Pcbnew,9.0.5*%
%TF.CreationDate,2026-09-14T19:45:05+08:00*%
%TF.ProjectId,thesis_custom_arduino_board,74686573-6973-45f6-9375-73746f6d5f61,rev?*%
%TF.SameCoordinates,Original*%
%TF.FileFunction,Soldermask,Top*%
%TF.FilePolarity,Negative*%
%FSLAX46Y46*%
G04 Gerber Fmt 4.6, Leading zero omitted, Abs format (unit mm)*
G04 Created by KiCad (PCBNEW 9.0.5) date 2026-09-14 19:45:05*
%MOMM*%
%LPD*%
G01*
G04 APERTURE LIST*
G04 Aperture macros list*
%AMRoundRect*
0 Rectangle with rounded corners*
0 $1 Rounding radius*
0 $2 $3 $4 $5 $6 $7 $8 $9 X,Y pos of 4 corners*
0 Add a 4 corners polygon primitive as box body*
4,1,4,$2,$3,$4,$5,$6,$7,$8,$9,$2,$3,0*
0 Add four circle primitives for the rounded corners*
1,1,$1+$1,$2,$3*
1,1,$1+$1,$4,$5*
1,1,$1+$1,$6,$7*
1,1,$1+$1,$8,$9*
0 Add four rect primitives between the rounded corners*
20,1,$1+$1,$2,$3,$4,$5,0*
20,1,$1+$1,$4,$5,$6,$7,0*
20,1,$1+$1,$6,$7,$8,$9,0*
20,1,$1+$1,$8,$9,$2,$3,0*%
G04 Aperture macros list end*
%ADD10RoundRect,0.250001X1.099999X1.099999X-1.099999X1.099999X-1.099999X-1.099999X1.099999X-1.099999X0*%
%ADD11C,2.700000*%
%ADD12C,1.600000*%
%ADD13R,1.700000X1.700000*%
%ADD14C,1.700000*%
%ADD15C,1.500000*%
%ADD16RoundRect,0.250000X0.550000X0.550000X-0.550000X0.550000X-0.550000X-0.550000X0.550000X-0.550000X0*%
%ADD17RoundRect,0.250000X-0.600000X-0.725000X0.600000X-0.725000X0.600000X0.725000X-0.600000X0.725000X0*%
%ADD18O,1.700000X1.950000*%
%ADD19RoundRect,0.250000X-0.600000X-0.750000X0.600000X-0.750000X0.600000X0.750000X-0.600000X0.750000X0*%
%ADD20O,1.700000X2.000000*%
%ADD21R,1.800000X1.800000*%
%ADD22C,1.800000*%
%ADD23RoundRect,0.250000X-0.725000X0.600000X-0.725000X-0.600000X0.725000X-0.600000X0.725000X0.600000X0*%
%ADD24O,1.950000X1.700000*%
%ADD25RoundRect,0.250000X-0.750000X0.600000X-0.750000X-0.600000X0.750000X-0.600000X0.750000X0.600000X0*%
%ADD26O,2.000000X1.700000*%
%ADD27R,2.000000X1.905000*%
%ADD28O,2.000000X1.905000*%
%ADD29RoundRect,0.250000X-0.550000X-0.550000X0.550000X-0.550000X0.550000X0.550000X-0.550000X0.550000X0*%
%ADD30RoundRect,0.250000X-0.600000X0.600000X-0.600000X-0.600000X0.600000X-0.600000X0.600000X0.600000X0*%
%ADD31RoundRect,0.250000X0.600000X0.725000X-0.600000X0.725000X-0.600000X-0.725000X0.600000X-0.725000X0*%
%ADD32RoundRect,0.249999X0.850001X-0.850001X0.850001X0.850001X-0.850001X0.850001X-0.850001X-0.850001X0*%
%ADD33C,2.200000*%
%ADD34C,2.000000*%
G04 APERTURE END LIST*
D10*
%TO.C,J10*%
X180257500Y-80550000D03*
D11*
X176297500Y-80550000D03*
%TD*%
D12*
%TO.C,R4*%
X163800000Y-87190000D03*
X163800000Y-94810000D03*
%TD*%
D13*
%TO.C,M2*%
X191120000Y-121280000D03*
D14*
X191120000Y-118740000D03*
X191120000Y-116200000D03*
X191120000Y-113660000D03*
X191120000Y-111120000D03*
X191120000Y-108580000D03*
X191120000Y-106040000D03*
X191120000Y-103500000D03*
D13*
X175770000Y-121280000D03*
D14*
X175770000Y-118740000D03*
X175770000Y-116200000D03*
X175770000Y-113660000D03*
X175770000Y-111120000D03*
X175770000Y-108580000D03*
X175770000Y-106040000D03*
X175770000Y-103500000D03*
%TD*%
D15*
%TO.C,Y1*%
X153850000Y-122200000D03*
X153850000Y-127080000D03*
%TD*%
D16*
%TO.C,C8*%
X160030000Y-107840000D03*
D12*
X158030000Y-107840000D03*
%TD*%
D17*
%TO.C,J3*%
X155870000Y-143600000D03*
D18*
X158370000Y-143600000D03*
X160870000Y-143600000D03*
X163370000Y-143600000D03*
X165870000Y-143600000D03*
X168370000Y-143600000D03*
%TD*%
D19*
%TO.C,J12*%
X128790000Y-78640000D03*
D20*
X131290000Y-78640000D03*
%TD*%
D21*
%TO.C,D2*%
X138885000Y-104100000D03*
D22*
X141425000Y-104100000D03*
%TD*%
D23*
%TO.C,M3*%
X129750000Y-136312500D03*
D24*
X129750000Y-138812500D03*
X129750000Y-141312500D03*
X129750000Y-143812500D03*
%TD*%
D16*
%TO.C,C9*%
X166735113Y-100430000D03*
D12*
X164735113Y-100430000D03*
%TD*%
%TO.C,C3*%
X168460000Y-88420000D03*
X168460000Y-93420000D03*
%TD*%
D16*
%TO.C,U1*%
X146460000Y-145710000D03*
D12*
X146460000Y-143170000D03*
X146460000Y-140630000D03*
X146460000Y-138090000D03*
X146460000Y-135550000D03*
X146460000Y-133010000D03*
X146460000Y-130470000D03*
X146460000Y-127930000D03*
X146460000Y-125390000D03*
X146460000Y-122850000D03*
X146460000Y-120310000D03*
X146460000Y-117770000D03*
X146460000Y-115230000D03*
X146460000Y-112690000D03*
X138840000Y-112690000D03*
X138840000Y-115230000D03*
X138840000Y-117770000D03*
X138840000Y-120310000D03*
X138840000Y-122850000D03*
X138840000Y-125390000D03*
X138840000Y-127930000D03*
X138840000Y-130470000D03*
X138840000Y-133010000D03*
X138840000Y-135550000D03*
X138840000Y-138090000D03*
X138840000Y-140630000D03*
X138840000Y-143170000D03*
X138840000Y-145710000D03*
%TD*%
D23*
%TO.C,J13*%
X129740000Y-85510000D03*
D24*
X129740000Y-88010000D03*
X129740000Y-90510000D03*
X129740000Y-93010000D03*
X129740000Y-95510000D03*
X129740000Y-98010000D03*
%TD*%
D12*
%TO.C,R1*%
X144780000Y-87490000D03*
X144780000Y-95110000D03*
%TD*%
D23*
%TO.C,J11*%
X129750000Y-150750000D03*
D24*
X129750000Y-153250000D03*
X129750000Y-155750000D03*
%TD*%
D17*
%TO.C,J5*%
X175825000Y-143600000D03*
D18*
X178325000Y-143600000D03*
X180825000Y-143600000D03*
%TD*%
D12*
%TO.C,C4*%
X164170000Y-107830000D03*
X169170000Y-107830000D03*
%TD*%
D10*
%TO.C,J4*%
X143457500Y-80550000D03*
D11*
X139497500Y-80550000D03*
%TD*%
D21*
%TO.C,D3*%
X169120000Y-125100000D03*
D22*
X171660000Y-125100000D03*
%TD*%
D12*
%TO.C,C1*%
X158810000Y-126540000D03*
X163810000Y-126540000D03*
%TD*%
%TO.C,C2*%
X158810000Y-122370000D03*
X163810000Y-122370000D03*
%TD*%
%TO.C,R3*%
X159030000Y-94770000D03*
X159030000Y-87150000D03*
%TD*%
D19*
%TO.C,J14*%
X178600000Y-135875000D03*
D20*
X181100000Y-135875000D03*
%TD*%
D25*
%TO.C,J6*%
X189750000Y-142500000D03*
D26*
X189750000Y-145000000D03*
%TD*%
D27*
%TO.C,U3*%
X151200000Y-88330000D03*
D28*
X151200000Y-90870000D03*
X151200000Y-93410000D03*
%TD*%
D12*
%TO.C,R2*%
X172640000Y-118550000D03*
X165020000Y-118550000D03*
%TD*%
D29*
%TO.C,C7*%
X158040000Y-100360000D03*
D12*
X160040000Y-100360000D03*
%TD*%
D23*
%TO.C,M4*%
X129750000Y-121875000D03*
D24*
X129750000Y-124375000D03*
X129750000Y-126875000D03*
X129750000Y-129375000D03*
%TD*%
D14*
%TO.C,J9*%
X187320000Y-152440000D03*
X187320000Y-154980000D03*
X184780000Y-152440000D03*
X184780000Y-154980000D03*
X182240000Y-152440000D03*
D30*
X182240000Y-154980000D03*
D14*
X179700000Y-152440000D03*
X179700000Y-154980000D03*
D30*
X177160000Y-152440000D03*
D14*
X177160000Y-154980000D03*
X174620000Y-152440000D03*
X174620000Y-154980000D03*
X172080000Y-152440000D03*
D30*
X172080000Y-154980000D03*
D14*
X169540000Y-152440000D03*
X169540000Y-154980000D03*
X167000000Y-152440000D03*
X167000000Y-154980000D03*
X164460000Y-152440000D03*
X164460000Y-154980000D03*
X161920000Y-152440000D03*
X161920000Y-154980000D03*
X159380000Y-152440000D03*
X159380000Y-154980000D03*
D30*
X156840000Y-152440000D03*
D14*
X156840000Y-154980000D03*
X154300000Y-152440000D03*
X154300000Y-154980000D03*
X151760000Y-152440000D03*
D30*
X151760000Y-154980000D03*
D14*
X149220000Y-152440000D03*
X149220000Y-154980000D03*
X146680000Y-152440000D03*
D30*
X146680000Y-154980000D03*
D14*
X144140000Y-152440000D03*
X144140000Y-154980000D03*
X141600000Y-152440000D03*
X141600000Y-154980000D03*
D30*
X139060000Y-152440000D03*
D14*
X139060000Y-154980000D03*
%TD*%
D13*
%TO.C,J1*%
X148550000Y-81345000D03*
D14*
X151090000Y-81345000D03*
X153630000Y-81345000D03*
%TD*%
D12*
%TO.C,C5*%
X152020000Y-133200000D03*
X157020000Y-133200000D03*
%TD*%
D31*
%TO.C,J2*%
X169870000Y-81475000D03*
D18*
X167370000Y-81475000D03*
X164870000Y-81475000D03*
X162370000Y-81475000D03*
X159870000Y-81475000D03*
%TD*%
D12*
%TO.C,C6*%
X152020000Y-137250000D03*
X157020000Y-137250000D03*
%TD*%
D19*
%TO.C,MTR1*%
X178575000Y-127850000D03*
D20*
X181075000Y-127850000D03*
%TD*%
D27*
%TO.C,U2*%
X151210000Y-100320000D03*
D28*
X151210000Y-102860000D03*
X151210000Y-105400000D03*
%TD*%
D12*
%TO.C,R5*%
X161060000Y-130160000D03*
X161060000Y-137780000D03*
%TD*%
D32*
%TO.C,D1*%
X138610000Y-97900000D03*
D33*
X138610000Y-87740000D03*
%TD*%
D34*
%TO.C,SW1*%
X165590000Y-132640000D03*
X172090000Y-132640000D03*
X165590000Y-137140000D03*
X172090000Y-137140000D03*
%TD*%
D14*
%TO.C,M1*%
X190920083Y-99440000D03*
X175920000Y-99430000D03*
D13*
X190920083Y-96900000D03*
X175920000Y-96890000D03*
D14*
X190920083Y-94360000D03*
X175920000Y-94350000D03*
X190920083Y-91820000D03*
X175920000Y-91810000D03*
X190920083Y-89280000D03*
X175920000Y-89270000D03*
X190920083Y-86740000D03*
X175920000Y-86730000D03*
%TD*%
D23*
%TO.C,J7*%
X129750000Y-104937500D03*
D24*
X129750000Y-107437500D03*
X129750000Y-109937500D03*
X129750000Y-112437500D03*
X129750000Y-114937500D03*
%TD*%
D23*
%TO.C,J8*%
X189710000Y-127950000D03*
D24*
X189710000Y-130450000D03*
X189710000Y-132950000D03*
X189710000Y-135450000D03*
%TD*%
M02*
