%TF.GenerationSoftware,KiCad,Pcbnew,9.0.5*%
%TF.CreationDate,2026-09-14T19:44:55+08:00*%
%TF.ProjectId,thesis_custom_arduino_board,74686573-6973-45f6-9375-73746f6d5f61,rev?*%
%TF.SameCoordinates,Original*%
%TF.FileFunction,Plated,1,2,PTH,Drill*%
%TF.FilePolarity,Positive*%
%FSLAX46Y46*%
G04 Gerber Fmt 4.6, Leading zero omitted, Abs format (unit mm)*
G04 Created by KiCad (PCBNEW 9.0.5) date 2026-09-14 19:44:55*
%MOMM*%
%LPD*%
G01*
G04 APERTURE LIST*
%TA.AperFunction,ViaDrill*%
%ADD10C,0.300000*%
%TD*%
%TA.AperFunction,ComponentDrill*%
%ADD11C,0.800000*%
%TD*%
%TA.AperFunction,ComponentDrill*%
%ADD12C,0.900000*%
%TD*%
%TA.AperFunction,ComponentDrill*%
%ADD13C,0.950000*%
%TD*%
%TA.AperFunction,ComponentDrill*%
%ADD14C,1.000000*%
%TD*%
%TA.AperFunction,ComponentDrill*%
%ADD15C,1.100000*%
%TD*%
%TA.AperFunction,ComponentDrill*%
%ADD16C,1.700000*%
%TD*%
%TA.AperFunction,ViaDrill*%
%ADD17C,2.692400*%
%TD*%
G04 APERTURE END LIST*
D10*
X132000000Y-134750000D03*
X133480000Y-122490000D03*
X155430000Y-101570000D03*
X155430000Y-102450000D03*
X155430000Y-103330000D03*
X155430000Y-104210000D03*
X156140000Y-101570000D03*
X156140000Y-102450000D03*
X156140000Y-103330000D03*
X156140000Y-104210000D03*
X158320039Y-146565000D03*
X158830000Y-147193000D03*
X187750000Y-110750000D03*
X188750000Y-110750000D03*
D11*
%TO.C,U1*%
X138840000Y-112690000D03*
X138840000Y-115230000D03*
X138840000Y-117770000D03*
X138840000Y-120310000D03*
X138840000Y-122850000D03*
X138840000Y-125390000D03*
X138840000Y-127930000D03*
X138840000Y-130470000D03*
X138840000Y-133010000D03*
X138840000Y-135550000D03*
X138840000Y-138090000D03*
X138840000Y-140630000D03*
X138840000Y-143170000D03*
X138840000Y-145710000D03*
%TO.C,R1*%
X144780000Y-87490000D03*
X144780000Y-95110000D03*
%TO.C,U1*%
X146460000Y-112690000D03*
X146460000Y-115230000D03*
X146460000Y-117770000D03*
X146460000Y-120310000D03*
X146460000Y-122850000D03*
X146460000Y-125390000D03*
X146460000Y-127930000D03*
X146460000Y-130470000D03*
X146460000Y-133010000D03*
X146460000Y-135550000D03*
X146460000Y-138090000D03*
X146460000Y-140630000D03*
X146460000Y-143170000D03*
X146460000Y-145710000D03*
%TO.C,C5*%
X152020000Y-133200000D03*
%TO.C,C6*%
X152020000Y-137250000D03*
%TO.C,Y1*%
X153850000Y-122200000D03*
X153850000Y-127080000D03*
%TO.C,C5*%
X157020000Y-133200000D03*
%TO.C,C6*%
X157020000Y-137250000D03*
%TO.C,C8*%
X158030000Y-107840000D03*
%TO.C,C7*%
X158040000Y-100360000D03*
%TO.C,C2*%
X158810000Y-122370000D03*
%TO.C,C1*%
X158810000Y-126540000D03*
%TO.C,R3*%
X159030000Y-87150000D03*
X159030000Y-94770000D03*
%TO.C,C8*%
X160030000Y-107840000D03*
%TO.C,C7*%
X160040000Y-100360000D03*
%TO.C,R5*%
X161060000Y-130160000D03*
X161060000Y-137780000D03*
%TO.C,R4*%
X163800000Y-87190000D03*
X163800000Y-94810000D03*
%TO.C,C2*%
X163810000Y-122370000D03*
%TO.C,C1*%
X163810000Y-126540000D03*
%TO.C,C4*%
X164170000Y-107830000D03*
%TO.C,C9*%
X164735113Y-100430000D03*
%TO.C,R2*%
X165020000Y-118550000D03*
%TO.C,C9*%
X166735113Y-100430000D03*
%TO.C,C3*%
X168460000Y-88420000D03*
X168460000Y-93420000D03*
%TO.C,C4*%
X169170000Y-107830000D03*
%TO.C,R2*%
X172640000Y-118550000D03*
D12*
%TO.C,D2*%
X138885000Y-104100000D03*
X141425000Y-104100000D03*
%TO.C,D3*%
X169120000Y-125100000D03*
X171660000Y-125100000D03*
D13*
%TO.C,J13*%
X129740000Y-85510000D03*
X129740000Y-88010000D03*
X129740000Y-90510000D03*
X129740000Y-93010000D03*
X129740000Y-95510000D03*
X129740000Y-98010000D03*
%TO.C,J7*%
X129750000Y-104937500D03*
X129750000Y-107437500D03*
X129750000Y-109937500D03*
X129750000Y-112437500D03*
X129750000Y-114937500D03*
%TO.C,M4*%
X129750000Y-121875000D03*
X129750000Y-124375000D03*
X129750000Y-126875000D03*
X129750000Y-129375000D03*
%TO.C,M3*%
X129750000Y-136312500D03*
X129750000Y-138812500D03*
X129750000Y-141312500D03*
X129750000Y-143812500D03*
%TO.C,J11*%
X129750000Y-150750000D03*
X129750000Y-153250000D03*
X129750000Y-155750000D03*
%TO.C,J3*%
X155870000Y-143600000D03*
X158370000Y-143600000D03*
%TO.C,J2*%
X159870000Y-81475000D03*
%TO.C,J3*%
X160870000Y-143600000D03*
%TO.C,J2*%
X162370000Y-81475000D03*
%TO.C,J3*%
X163370000Y-143600000D03*
%TO.C,J2*%
X164870000Y-81475000D03*
%TO.C,J3*%
X165870000Y-143600000D03*
%TO.C,J2*%
X167370000Y-81475000D03*
%TO.C,J3*%
X168370000Y-143600000D03*
%TO.C,J2*%
X169870000Y-81475000D03*
%TO.C,J5*%
X175825000Y-143600000D03*
X178325000Y-143600000D03*
X180825000Y-143600000D03*
%TO.C,J8*%
X189710000Y-127950000D03*
X189710000Y-130450000D03*
X189710000Y-132950000D03*
X189710000Y-135450000D03*
D14*
%TO.C,J12*%
X128790000Y-78640000D03*
X131290000Y-78640000D03*
%TO.C,J9*%
X139060000Y-152440000D03*
X139060000Y-154980000D03*
X141600000Y-152440000D03*
X141600000Y-154980000D03*
X144140000Y-152440000D03*
X144140000Y-154980000D03*
X146680000Y-152440000D03*
X146680000Y-154980000D03*
%TO.C,J1*%
X148550000Y-81345000D03*
%TO.C,J9*%
X149220000Y-152440000D03*
X149220000Y-154980000D03*
%TO.C,J1*%
X151090000Y-81345000D03*
%TO.C,J9*%
X151760000Y-152440000D03*
X151760000Y-154980000D03*
%TO.C,J1*%
X153630000Y-81345000D03*
%TO.C,J9*%
X154300000Y-152440000D03*
X154300000Y-154980000D03*
X156840000Y-152440000D03*
X156840000Y-154980000D03*
X159380000Y-152440000D03*
X159380000Y-154980000D03*
X161920000Y-152440000D03*
X161920000Y-154980000D03*
X164460000Y-152440000D03*
X164460000Y-154980000D03*
X167000000Y-152440000D03*
X167000000Y-154980000D03*
X169540000Y-152440000D03*
X169540000Y-154980000D03*
X172080000Y-152440000D03*
X172080000Y-154980000D03*
X174620000Y-152440000D03*
X174620000Y-154980000D03*
%TO.C,M2*%
X175770000Y-103500000D03*
X175770000Y-106040000D03*
X175770000Y-108580000D03*
X175770000Y-111120000D03*
X175770000Y-113660000D03*
X175770000Y-116200000D03*
X175770000Y-118740000D03*
X175770000Y-121280000D03*
%TO.C,M1*%
X175920000Y-86730000D03*
X175920000Y-89270000D03*
X175920000Y-91810000D03*
X175920000Y-94350000D03*
X175920000Y-96890000D03*
X175920000Y-99430000D03*
%TO.C,J9*%
X177160000Y-152440000D03*
X177160000Y-154980000D03*
%TO.C,MTR1*%
X178575000Y-127850000D03*
%TO.C,J14*%
X178600000Y-135875000D03*
%TO.C,J9*%
X179700000Y-152440000D03*
X179700000Y-154980000D03*
%TO.C,MTR1*%
X181075000Y-127850000D03*
%TO.C,J14*%
X181100000Y-135875000D03*
%TO.C,J9*%
X182240000Y-152440000D03*
X182240000Y-154980000D03*
X184780000Y-152440000D03*
X184780000Y-154980000D03*
X187320000Y-152440000D03*
X187320000Y-154980000D03*
%TO.C,J6*%
X189750000Y-142500000D03*
X189750000Y-145000000D03*
%TO.C,M1*%
X190920083Y-86740000D03*
X190920083Y-89280000D03*
X190920083Y-91820000D03*
X190920083Y-94360000D03*
X190920083Y-96900000D03*
X190920083Y-99440000D03*
%TO.C,M2*%
X191120000Y-103500000D03*
X191120000Y-106040000D03*
X191120000Y-108580000D03*
X191120000Y-111120000D03*
X191120000Y-113660000D03*
X191120000Y-116200000D03*
X191120000Y-118740000D03*
X191120000Y-121280000D03*
D15*
%TO.C,D1*%
X138610000Y-87740000D03*
X138610000Y-97900000D03*
%TO.C,U3*%
X151200000Y-88330000D03*
X151200000Y-90870000D03*
X151200000Y-93410000D03*
%TO.C,U2*%
X151210000Y-100320000D03*
X151210000Y-102860000D03*
X151210000Y-105400000D03*
%TO.C,SW1*%
X165590000Y-132640000D03*
X165590000Y-137140000D03*
X172090000Y-132640000D03*
X172090000Y-137140000D03*
D16*
%TO.C,J4*%
X139497500Y-80550000D03*
X143457500Y-80550000D03*
%TO.C,J10*%
X176297500Y-80550000D03*
X180257500Y-80550000D03*
%TD*%
D17*
X122450000Y-79475000D03*
X122450000Y-153150000D03*
X197175000Y-79500000D03*
X197175000Y-153150000D03*
M02*
